<?xml version="1.0" encoding="UTF-8"?>
<svg version="1.1" xmlns="http://www.w3.org/2000/svg" width="588" height="586">
<path d="M0 0 C1.25684801 -0.00367669 2.51369603 -0.00735338 3.80863035 -0.01114148 C7.26249685 -0.02104846 10.716346 -0.02485967 14.17022467 -0.02753079 C17.9084886 -0.0314672 21.6467392 -0.04104206 25.38499451 -0.04974365 C34.38863682 -0.06940206 43.39228009 -0.07955512 52.39593846 -0.08847144 C56.64340891 -0.09286688 60.89087814 -0.09822994 65.13834763 -0.10346031 C79.26565352 -0.12045266 93.39295868 -0.13494941 107.52027321 -0.14220905 C111.1767947 -0.14411866 114.83331618 -0.14603905 118.48983765 -0.147995 C119.85290206 -0.14872061 119.85290206 -0.14872061 121.24350314 -0.14946087 C135.98293691 -0.1577717 150.72228982 -0.18313525 165.46168824 -0.21557567 C180.61558433 -0.24865543 195.76943928 -0.26665815 210.92337167 -0.26985329 C219.42352037 -0.27201621 227.92355068 -0.28073428 236.42366409 -0.30631447 C243.65668228 -0.32803295 250.88955323 -0.33606578 258.12260033 -0.32634769 C261.81002296 -0.32180795 265.49714181 -0.32367034 269.18452263 -0.34310913 C273.18743697 -0.36402898 277.1896797 -0.35374108 281.19262695 -0.34057617 C282.34983423 -0.35154542 283.5070415 -0.36251466 284.69931567 -0.37381631 C292.1740101 -0.31453282 299.62038555 0.53332326 305.5832392 5.48828334 C312.50464602 13.18256016 312.41146352 21.08527829 312.38925171 30.91011047 C312.39659976 32.30377377 312.40518812 33.697431 312.41491699 35.09107971 C312.4370669 38.8619318 312.4400669 42.63256493 312.43816948 46.40347314 C312.43804945 49.55926822 312.44662691 52.71501746 312.45494699 55.87079972 C312.47415839 63.32127189 312.4770735 70.77163204 312.4703064 78.22212219 C312.46367034 85.8890609 312.48651731 93.55551794 312.52362013 101.222359 C312.55438768 107.82135599 312.56566945 114.42019861 312.56178331 121.01926583 C312.55972271 124.95326172 312.56508727 128.88688283 312.5896759 132.82081032 C312.61205729 136.52371208 312.60997222 140.22583507 312.58974838 143.92874146 C312.58475213 145.92110945 312.60427544 147.91349272 312.62475586 149.90576172 C312.5521069 157.72789457 311.41684247 163.60398612 306.96932983 170.14717102 C304.65292358 172.40107727 304.65292358 172.40107727 302.40682983 173.70967102 C301.66304077 174.16471008 300.91925171 174.61974915 300.15292358 175.08857727 C295.53837977 177.32568169 291.1295325 177.28792616 286.07450485 177.27021885 C284.8671481 177.27194962 284.8671481 177.27194962 283.6354003 177.27371535 C280.92139258 177.27637539 278.20744345 177.27186484 275.49343872 177.26742554 C273.53483098 177.26786136 271.57622331 177.26873648 269.61761594 177.2700147 C264.22229995 177.27225741 258.82700369 177.26824141 253.43169022 177.26323664 C247.61848195 177.25892914 241.80527484 177.26037878 235.99206543 177.26113892 C225.91588832 177.26166396 215.83971766 177.25851919 205.76354218 177.25290108 C191.19497724 177.24478344 176.6264153 177.24216724 162.05784836 177.24091309 C138.42287168 177.23881196 114.78789837 177.23207259 91.15292358 177.22261047 C68.19003314 177.21342802 45.22714362 177.20634344 22.26425171 177.20210266 C21.55659531 177.20197113 20.84893891 177.20183961 20.11983838 177.2017041 C13.01334531 177.20038559 5.90685222 177.19910978 -1.19964087 177.19786524 C-15.67674427 177.19532894 -30.15384761 177.19250768 -44.63095093 177.18951416 C-45.29660352 177.18937687 -45.96225611 177.18923958 -46.64807999 177.18909813 C-91.10894479 177.17989547 -135.56980769 177.16402926 -180.03067017 177.14717102 C-180.04273699 174.42344344 -180.0515495 171.69976993 -180.0585022 168.97602844 C-180.06223343 168.20929558 -180.06596466 167.44256271 -180.06980896 166.65259552 C-180.0802885 161.17556578 -179.80216461 155.87044104 -178.90567017 150.45967102 C-178.77370239 149.63845764 -178.64173462 148.81724426 -178.50576782 147.97114563 C-172.46751245 112.74134652 -156.51688916 80.14156889 -131.43154907 54.57881165 C-130.10848532 53.22669491 -128.80899494 51.85162706 -127.51113892 50.47529602 C-94.57947426 16.21359644 -46.70801915 -0.00747017 0 0 Z " fill="#020202" transform="translate(180.03067016601563,204.8528289794922)"/>
<path d="M0 0 C1.33422719 -0.0033042 2.66845339 -0.00703093 4.00267833 -0.01114148 C7.65379914 -0.02110502 11.30490351 -0.02486905 14.95603597 -0.02753079 C18.89949507 -0.03145027 22.84294135 -0.04102686 26.78639221 -0.04974365 C36.29744103 -0.06945359 45.80849084 -0.07956369 55.31955495 -0.08847144 C59.80102905 -0.09286011 64.28250197 -0.09822512 68.76397514 -0.10346031 C83.66231955 -0.12046107 98.56066324 -0.13495762 113.45901585 -0.14220905 C117.32008426 -0.14411883 121.18115267 -0.14603919 125.04222107 -0.147995 C126.48163365 -0.14872061 126.48163365 -0.14872061 127.95012527 -0.14946087 C143.51308686 -0.15777052 159.07597183 -0.18312832 174.63889993 -0.21557567 C190.62321395 -0.24862983 206.60748897 -0.266656 222.59183735 -0.26985329 C231.5642291 -0.27201905 240.53650883 -0.28077822 249.50886726 -0.30631447 C257.14500788 -0.32799833 264.78100923 -0.33608301 272.41717715 -0.32634769 C276.31279646 -0.32179732 280.20812824 -0.32373204 284.10370827 -0.34310913 C288.32682903 -0.36393441 292.54930966 -0.35377473 296.77246094 -0.34057617 C298.61885511 -0.35703004 298.61885511 -0.35703004 300.50255018 -0.37381631 C307.16756081 -0.32338893 311.42948501 0.10749942 316.82273865 4.14717102 C320.56933272 8.2684245 320.94922996 11.86914941 320.96990967 17.30726624 C320.98064262 19.24194763 320.98064262 19.24194763 320.99159241 21.2157135 C320.99443265 22.64826941 320.99714438 24.08082558 320.9997406 25.51338196 C321.00600603 27.01969052 321.0126529 28.52599753 321.01965332 30.03230286 C321.04068698 34.98203964 321.05105514 39.93177672 321.0610199 44.88154602 C321.06506773 46.58611823 321.06918466 48.29069027 321.07336998 49.99526215 C321.09242023 58.00376899 321.10665153 66.01226662 321.11498195 74.02079177 C321.12475378 83.26222259 321.15107248 92.50341386 321.19148284 101.74476027 C321.22165273 108.8896714 321.23645166 116.03451389 321.23976296 123.17948747 C321.24211249 127.44596119 321.25106011 131.71217895 321.27622414 135.97858429 C321.29952524 139.9940059 321.30373008 144.00900337 321.29346275 148.0244751 C321.29296777 149.49542909 321.29927723 150.96640411 321.3130188 152.43729401 C321.43914096 166.74165786 321.43914096 166.74165786 316.82273865 172.14717102 C311.64482009 175.69960335 307.75458917 176.7273149 301.44944859 176.63936234 C300.62926393 176.64397771 299.80907928 176.64859309 298.96404055 176.65334833 C296.21581079 176.66393579 293.46851853 176.64599265 290.72033691 176.62818909 C288.73026432 176.6299335 286.74019262 176.63343601 284.75012583 176.63854575 C279.28166666 176.6474951 273.81352052 176.63148244 268.34510124 176.61143351 C262.44810041 176.59417244 256.55111749 176.60000426 250.65409851 176.6030426 C240.43715286 176.60514081 230.22030932 176.59258233 220.00338936 176.57009125 C209.28860443 176.54651953 198.57386321 176.53102656 187.85905266 176.52667999 C187.19270103 176.52640503 186.52634941 176.52613008 185.83980531 176.52584678 C182.45570646 176.52449344 179.07160757 176.52328791 175.68750864 176.52213928 C151.7214085 176.51373888 127.75536156 176.48679293 103.78929138 176.44892883 C80.50739322 176.41218813 57.22550961 176.38385514 33.94358826 176.36689758 C33.22586805 176.36637148 32.50814784 176.36584537 31.76867853 176.36530333 C24.56100061 176.36002922 17.35332258 176.35492597 10.14564445 176.34994789 C-4.53706992 176.33980319 -19.21978335 176.32851818 -33.90249634 176.31654358 C-34.57757548 176.31599442 -35.25265462 176.31544526 -35.94819071 176.31487946 C-81.02456999 176.27808026 -126.10091865 176.21461663 -171.17726135 176.14717102 C-171.18341098 174.23530985 -171.18778758 172.32344292 -171.19142151 170.41157532 C-171.19404999 169.34690536 -171.19667847 168.28223541 -171.1993866 167.18530273 C-170.86206327 120.86569262 -147.59827677 78.70524086 -115.66163635 46.61982727 C-84.77855238 17.39457756 -42.52185079 -0.00638028 0 0 Z " fill="#000000" transform="translate(267.17726135253906,-0.1471710205078125)"/>
<path d="M0 0 C1.44842367 -0.00512655 1.44842367 -0.00512655 2.92610842 -0.01035666 C6.1522614 -0.01692993 9.377577 0.00503196 12.60365295 0.0269165 C14.91992676 0.0280451 17.236202 0.02741089 19.55247498 0.02514648 C25.83504344 0.02399889 32.1173064 0.04751606 38.39980388 0.07544231 C44.96745807 0.10044808 51.53511927 0.10279733 58.10281372 0.10754395 C69.12446895 0.11789738 80.14601717 0.14354809 91.1676178 0.17926025 C102.51787253 0.21599898 113.86809682 0.2443016 125.21839905 0.2612915 C125.91850394 0.2623424 126.61860884 0.26339329 127.33992904 0.26447603 C130.85229115 0.26969633 134.36465348 0.27475113 137.87701595 0.27972364 C166.99698663 0.3211633 196.11684662 0.39189031 225.23670959 0.48101807 C225.24783943 2.87312092 225.25594805 5.26517122 225.26234436 7.6572876 C225.26749935 8.66533195 225.26749935 8.66533195 225.27275848 9.69374084 C225.28337199 14.99382254 224.95724716 20.11898053 224.17420959 25.35601807 C224.04481995 26.22476562 223.9154303 27.09351318 223.78211975 27.98858643 C218.35835236 61.44500984 203.83302676 93.2872663 180.52186584 118.03961182 C178.58364605 120.11035946 176.78273628 122.22637522 174.98670959 124.41851807 C148.1109957 155.03563065 105.13719203 172.82492052 65.23670959 176.48101807 C59.36763443 176.82526291 53.48893967 176.81144384 47.61170959 176.81695557 C45.96839794 176.82340358 44.32508737 176.83013333 42.68177795 176.83712769 C39.26988559 176.8489872 35.85809372 176.85281939 32.44618225 176.85162354 C28.0874584 176.85141878 23.72937508 176.87893132 19.37080383 176.91316795 C15.9906469 176.93543451 12.61064573 176.93946147 9.23042297 176.93840408 C7.62293755 176.94075228 6.01544733 176.94953146 4.40803528 176.96506882 C2.16426865 176.9847642 -0.07809276 176.97888281 -2.32188416 176.96685791 C-3.59346375 176.96970795 -4.86504333 176.97255798 -6.17515564 176.97549438 C-12.03776626 176.16757542 -15.34448249 174.14674738 -19.16844177 169.6572876 C-22.05502552 163.82882248 -21.31919115 157.0032777 -21.28086853 150.66070557 C-21.28629404 149.15380173 -21.2934191 147.6469032 -21.30210876 146.14001465 C-21.32029432 142.06144372 -21.31329451 137.98327897 -21.30059242 133.90470123 C-21.29043993 129.62918533 -21.29986434 125.35370336 -21.30613708 121.07818604 C-21.31340696 113.89924906 -21.30384318 106.72047688 -21.28477478 99.54156494 C-21.26300724 91.25092041 -21.27005908 82.9606694 -21.2920804 74.67003441 C-21.31025327 67.54199552 -21.31278352 60.41407485 -21.30232573 53.28602028 C-21.29610114 49.03306252 -21.29522655 44.78028952 -21.30847168 40.52734375 C-21.32005714 36.52822266 -21.31195577 32.52960715 -21.28889465 28.53054047 C-21.28362187 27.06605619 -21.28509682 25.60152911 -21.29394531 24.13706207 C-21.37205759 9.89186933 -21.37205759 9.89186933 -16.76329041 4.48101807 C-11.07754103 0.46669683 -6.86007231 -0.08940798 0 0 Z " fill="#010101" transform="translate(20.763290405273438,409.51898193359375)"/>
</svg>
